<svg width="24" height="24" viewBox="0 0 24 24" fill="none" xmlns="http://www.w3.org/2000/svg">
<path fill-rule="evenodd" clip-rule="evenodd" d="M14.9603 5.39972C14.6674 5.10683 14.1926 5.10683 13.8997 5.39972C13.6068 5.69262 13.6068 6.16749 13.8997 6.46038L18.6893 11.25H11.01C10.5958 11.25 10.26 11.5858 10.26 12C10.26 12.4142 10.5958 12.75 11.01 12.75H18.6894L13.8997 17.5397C13.6068 17.8326 13.6068 18.3075 13.8997 18.6004C14.1926 18.8933 14.6674 18.8933 14.9603 18.6004L21.0303 12.5304C21.171 12.3897 21.25 12.199 21.25 12.0001C21.25 11.8011 21.171 11.6104 21.0303 11.4697L14.9603 5.39972Z" fill="#171717"/>
<path fill-rule="evenodd" clip-rule="evenodd" d="M2.75 12C2.75 11.5858 3.08579 11.25 3.5 11.25H6.97C7.38421 11.25 7.72 11.5858 7.72 12C7.72 12.4142 7.38421 12.75 6.97 12.75H3.5C3.08579 12.75 2.75 12.4142 2.75 12Z" fill="#171717"/>
</svg>
