<svg width="24" height="24" viewBox="0 0 24 24" fill="none" xmlns="http://www.w3.org/2000/svg">
<path fill-rule="evenodd" clip-rule="evenodd" d="M10.1003 6.46038C10.3932 6.16749 10.3932 5.69262 10.1003 5.39972C9.80744 5.10683 9.33256 5.10683 9.03967 5.39972L2.97506 11.4643C2.83617 11.6005 2.75 11.7902 2.75 12C2.75 12 2.75 12 2.75 12.0001C2.75 12.0024 2.75001 12.0048 2.75003 12.0071C2.75161 12.177 2.80967 12.3334 2.90634 12.4584C2.92579 12.4836 2.94692 12.5076 2.96967 12.5304L9.03967 18.6004C9.33256 18.8933 9.80744 18.8933 10.1003 18.6004C10.3932 18.3075 10.3932 17.8326 10.1003 17.5397L5.31061 12.75H12.82C13.2342 12.75 13.57 12.4142 13.57 12C13.57 11.5858 13.2342 11.25 12.82 11.25H5.31071L10.1003 6.46038Z" fill="#171717"/>
<path fill-rule="evenodd" clip-rule="evenodd" d="M16.1 12C16.1 11.5858 16.4358 11.25 16.85 11.25H20.33C20.7442 11.25 21.08 11.5858 21.08 12C21.08 12.4142 20.7442 12.75 20.33 12.75H16.85C16.4358 12.75 16.1 12.4142 16.1 12Z" fill="#171717"/>
</svg>
