<svg width="24" height="24" viewBox="0 0 24 24" fill="none" xmlns="http://www.w3.org/2000/svg">
<path fill-rule="evenodd" clip-rule="evenodd" d="M11.7203 7.40961C12.0132 7.7025 12.0132 8.17738 11.7203 8.47027L9.10032 11.0903C8.62322 11.5674 8.62322 12.3525 9.10032 12.8296L15.6203 19.3496C15.9132 19.6425 15.9132 20.1174 15.6203 20.4103C15.3274 20.7032 14.8526 20.7032 14.5597 20.4103L8.03966 13.8903C6.97677 12.8274 6.97677 11.0925 8.03966 10.0296L10.6597 7.40961C10.9526 7.11672 11.4274 7.11672 11.7203 7.40961Z" fill="#171717"/>
<path fill-rule="evenodd" clip-rule="evenodd" d="M15.6203 3.50971C15.9132 3.8026 15.9132 4.27748 15.6203 4.57037L14.5803 5.61037C14.2874 5.90326 13.8126 5.90326 13.5197 5.61037C13.2268 5.31748 13.2268 4.8426 13.5197 4.54971L14.5597 3.50971C14.8526 3.21682 15.3274 3.21682 15.6203 3.50971Z" fill="#171717"/>
</svg>
