<svg width="24" height="24" viewBox="0 0 24 24" fill="none" xmlns="http://www.w3.org/2000/svg">
<path fill-rule="evenodd" clip-rule="evenodd" d="M12.3697 7.40961C12.6626 7.11672 13.1374 7.11672 13.4303 7.40961L16.0503 10.0296C17.1132 11.0925 17.1132 12.8274 16.0503 13.8903L9.52992 20.4007C9.23681 20.6933 8.76193 20.693 8.46926 20.3999C8.17659 20.1067 8.17696 19.6319 8.47008 19.3392L14.9897 12.8296C14.9897 12.8296 14.9896 12.8296 14.9897 12.8296C15.4667 12.3525 15.4667 11.5673 14.9897 11.0903L12.3697 8.47027C12.0768 8.17738 12.0768 7.7025 12.3697 7.40961Z" fill="#171717"/>
<path fill-rule="evenodd" clip-rule="evenodd" d="M8.46967 3.50971C8.76256 3.21682 9.23744 3.21682 9.53033 3.50971L10.5703 4.54971C10.8632 4.8426 10.8632 5.31748 10.5703 5.61037C10.2774 5.90326 9.80256 5.90326 9.50967 5.61037L8.46967 4.57037C8.17678 4.27748 8.17678 3.8026 8.46967 3.50971Z" fill="#171717"/>
</svg>
