<svg width="24" height="24" viewBox="0 0 24 24" fill="none" xmlns="http://www.w3.org/2000/svg">
<path fill-rule="evenodd" clip-rule="evenodd" d="M11.9999 9.16992C10.4341 9.16992 9.16992 10.4341 9.16992 11.9999C9.16992 12.5103 9.30385 12.9864 9.54021 13.399L13.399 9.54021C12.9864 9.30385 12.5103 9.16992 11.9999 9.16992ZM7.66992 11.9999C7.66992 9.60571 9.60571 7.66992 11.9999 7.66992C13.1977 7.66992 14.276 8.15536 15.0603 8.93959C15.3531 9.23249 15.3531 9.70736 15.0603 10.0003L10.0003 15.0603C9.70736 15.3531 9.23249 15.3531 8.93959 15.0603C8.15536 14.276 7.66992 13.1977 7.66992 11.9999Z" fill="#171717"/>
<path fill-rule="evenodd" clip-rule="evenodd" d="M6.678 4.532C5.213 5.419 3.871 6.702 2.732 8.302C1.727 9.714 1.435 10.653 1.493 12.28C1.537 13.519 1.764 14.233 2.44 15.258C3.065 16.205 3.74 17.021 4.538 17.791C5.195 18.427 5.295 18.493 5.6 18.493A0.712 0.712 0 0 0 6.245 18.133C6.362 17.943 6.371 17.584 6.263 17.419C6.224 17.36 5.882 17.003 5.503 16.626A16.64 16.64 0 0 1 4.463 15.5C3.995 14.912 3.396 14.001 3.266 13.68C2.785 12.493 2.885 10.862 3.5 9.844C4.398 8.359 5.851 6.838 7.2 5.97C7.387 5.85 7.582 5.713 7.634 5.666C7.882 5.439 7.929 5.058 7.747 4.748C7.53 4.377 7.082 4.287 6.678 4.532Z" fill="#171717"/>
<path fill-rule="evenodd" clip-rule="evenodd" d="M11.25 3.72998C11.25 3.31577 11.5858 2.97998 12 2.97998C14.2496 2.97998 16.4055 3.76359 18.2716 5.17121C18.6023 5.42065 18.6682 5.89093 18.4188 6.22162C18.1693 6.55231 17.699 6.61818 17.3684 6.36875C15.7345 5.13637 13.8904 4.47998 12 4.47998C11.5858 4.47998 11.25 4.14419 11.25 3.72998Z" fill="#171717"/>
<path fill-rule="evenodd" clip-rule="evenodd" d="M19.58 7.34555C19.9028 7.08594 20.3749 7.13713 20.6345 7.45989C21.0184 7.93716 21.3955 8.45001 21.7434 8.99809C22.288 9.85233 22.5351 10.9464 22.5351 11.995C22.5351 13.044 22.2878 14.1386 21.7426 14.993C19.3517 18.7514 15.8481 21.02 12.0001 21.02C10.6636 21.02 9.35494 20.7373 8.12907 20.2212C7.74732 20.0604 7.56815 19.6207 7.72889 19.2389C7.88963 18.8572 8.32941 18.678 8.71116 18.8387C9.76529 19.2826 10.8767 19.52 12.0001 19.52C15.212 19.52 18.2882 17.6288 20.4773 14.1874L20.4779 14.1864C20.8325 13.6309 21.0351 12.8357 21.0351 11.995C21.0351 11.1542 20.8325 10.359 20.4779 9.80348L20.4769 9.80183C20.1647 9.30991 19.8218 8.84276 19.4657 8.40003C19.2061 8.07727 19.2573 7.60516 19.58 7.34555Z" fill="#171717"/>
<path fill-rule="evenodd" clip-rule="evenodd" d="M15.6461 11.9625C16.0534 12.0376 16.3228 12.4287 16.2476 12.8361C15.9312 14.5519 14.5419 15.9413 12.8261 16.2576C12.4187 16.3328 12.0276 16.0634 11.9525 15.6561C11.8774 15.2487 12.1467 14.8576 12.5541 14.7825C13.6582 14.5789 14.5689 13.6682 14.7725 12.5641C14.8476 12.1567 15.2387 11.8874 15.6461 11.9625Z" fill="#171717"/>
<path fill-rule="evenodd" clip-rule="evenodd" d="M10.0003 13.9997C10.2932 14.2926 10.2932 14.7675 10.0003 15.0604L2.53033 22.5304C2.23744 22.8233 1.76256 22.8233 1.46967 22.5304C1.17678 22.2375 1.17678 21.7626 1.46967 21.4697L8.93967 13.9997C9.23256 13.7068 9.70744 13.7068 10.0003 13.9997Z" fill="#171717"/>
<path fill-rule="evenodd" clip-rule="evenodd" d="M22.5301 1.46967C22.823 1.76256 22.823 2.23744 22.5301 2.53033L15.0601 10.0003C14.7672 10.2932 14.2923 10.2932 13.9995 10.0003C13.7066 9.70744 13.7066 9.23256 13.9995 8.93967L21.4695 1.46967C21.7623 1.17678 22.2372 1.17678 22.5301 1.46967Z" fill="#171717"/>
</svg>
