<svg width="24" height="24" viewBox="0 0 24 24" fill="none" xmlns="http://www.w3.org/2000/svg">
<path fill-rule="evenodd" clip-rule="evenodd" d="M11.9999 9.16992C10.4341 9.16992 9.16992 10.4341 9.16992 11.9999C9.16992 12.5896 9.34469 13.1318 9.6489 13.5764C9.8828 13.9183 9.79529 14.385 9.45343 14.6189C9.11158 14.8528 8.64484 14.7653 8.41094 14.4234C7.93515 13.7281 7.66992 12.8903 7.66992 11.9999C7.66992 9.60571 9.60571 7.66992 11.9999 7.66992C14.3941 7.66992 16.3299 9.60571 16.3299 11.9999C16.3299 14.3941 14.3941 16.3299 11.9999 16.3299C11.5857 16.3299 11.2499 15.9941 11.2499 15.5799C11.2499 15.1657 11.5857 14.8299 11.9999 14.8299C13.5657 14.8299 14.8299 13.5657 14.8299 11.9999C14.8299 10.4341 13.5657 9.16992 11.9999 9.16992Z" fill="#171717"/>
<path fill-rule="evenodd" clip-rule="evenodd" d="M2.25734 9.00695C4.64826 5.24858 8.15186 2.97998 11.9998 2.97998C14.1405 2.97998 16.19 3.68747 17.9941 4.96846C18.3318 5.20827 18.4112 5.67646 18.1714 6.0142C17.9316 6.35193 17.4634 6.43131 17.1256 6.1915C15.5497 5.07249 13.7992 4.47998 11.9998 4.47998C8.78799 4.47998 5.71174 6.37118 3.52266 9.81252L3.52204 9.81351C3.16745 10.369 2.96484 11.1642 2.96484 12.005C2.96484 12.8457 3.16745 13.6409 3.52204 14.1965L3.52266 14.1974C5.71174 17.6388 8.78799 19.53 11.9998 19.53C15.2117 19.53 18.288 17.6388 20.477 14.1974L20.4777 14.1965C20.8322 13.6409 21.0348 12.8457 21.0348 12.005C21.0348 11.1642 20.8322 10.369 20.4777 9.81351C20.2548 9.46436 20.3572 9.00065 20.7063 8.77779C21.0555 8.55493 21.5192 8.6573 21.742 9.00645C22.2875 9.86094 22.5348 10.9557 22.5348 12.005C22.5348 13.0538 22.2876 14.1482 21.7427 15.0025C19.3517 18.7612 15.848 21.03 11.9998 21.03C8.1517 21.03 4.64795 18.7612 2.25703 15.0025C1.71205 14.1482 1.46484 13.0538 1.46484 12.005C1.46484 10.9559 1.71214 9.86136 2.25734 9.00695Z" fill="#171717"/>
</svg>
