<svg width="24" height="24" viewBox="0 0 24 24" fill="none" xmlns="http://www.w3.org/2000/svg">
<path fill-rule="evenodd" clip-rule="evenodd" d="M7.66385 2.16533C8.99055 1.57209 10.4649 1.25 12 1.25C17.9342 1.25 22.75 6.06579 22.75 12C22.75 17.9342 17.9342 22.75 12 22.75C6.06579 22.75 1.25 17.9342 1.25 12C1.25 9.5809 2.0568 7.34452 3.39957 5.55058C3.64778 5.21897 4.11782 5.15136 4.44942 5.39957C4.78103 5.64778 4.84864 6.11782 4.60043 6.44942C3.4432 7.99548 2.75 9.9191 2.75 12C2.75 17.1058 6.89421 21.25 12 21.25C17.1058 21.25 21.25 17.1058 21.25 12C21.25 6.89421 17.1058 2.75 12 2.75C10.6751 2.75 9.40945 3.02791 8.27615 3.53467C7.89802 3.70375 7.45441 3.53428 7.28533 3.15615C7.11625 2.77802 7.28572 2.33441 7.66385 2.16533Z" fill="#171717"/>
<path fill-rule="evenodd" clip-rule="evenodd" d="M16.648 8.71732C16.9422 9.00891 16.9443 9.48378 16.6527 9.77797L15.5327 10.908C15.2411 11.2022 14.7662 11.2043 14.472 10.9127C14.1778 10.6211 14.1757 10.1462 14.4673 9.85203L15.5873 8.72203C15.8789 8.42784 16.3538 8.42573 16.648 8.71732Z" fill="#171717"/>
<path fill-rule="evenodd" clip-rule="evenodd" d="M7.35052 11.4687C7.64395 11.1763 8.11882 11.1772 8.41118 11.4706L10.6219 13.6894L12.6406 11.6786C12.9341 11.3863 13.4089 11.3872 13.7013 11.6807C13.9936 11.9742 13.9926 12.4491 13.6992 12.7414L11.1492 15.2814C10.8557 15.5737 10.3809 15.5728 10.0886 15.2794L7.34859 12.5294C7.05623 12.2359 7.05709 11.7611 7.35052 11.4687Z" fill="#171717"/>
</svg>
